inDegrees=no
num_controls=7
num_derivatives=13
num_iterations=96
num_multipliers=7
num_parameters=0
num_slacks=7
num_states=26
objective=0.545698
objective_accelerations=0.041462
objective_balance=0.003677
objective_effort=0.040340
objective_height=0.450774
objective_ligament=0.009445
solver_duration=1022.845252
status=Solve_Succeeded
success=true
DataType=double
version=3
OpenSimVersion=4.5
endheader
time	/jointset/ground_pelvis/pelvis_tilt/value	/jointset/ground_pelvis/pelvis_tx/value	/jointset/ground_pelvis/pelvis_ty/value	/jointset/hip_r/hip_flexion_r/value	/jointset/hip_r/hip_adduction_r/value	/jointset/hip_r/hip_rotation_r/value	/jointset/back/lumbar_extension/value	/jointset/patellofemoral_r/patellar_flexion_r/value	/jointset/knee_r/knee_flexion_r/value	/jointset/knee_r/knee_adduction_r/value	/jointset/knee_r/knee_rotation_r/value	/jointset/ankle_r/ankle_angle_r/value	/jointset/subtalar_r/subtalar_angle_r/value	/jointset/ground_pelvis/pelvis_tilt/speed	/jointset/ground_pelvis/pelvis_tx/speed	/jointset/ground_pelvis/pelvis_ty/speed	/jointset/hip_r/hip_flexion_r/speed	/jointset/hip_r/hip_adduction_r/speed	/jointset/hip_r/hip_rotation_r/speed	/jointset/back/lumbar_extension/speed	/jointset/patellofemoral_r/patellar_flexion_r/speed	/jointset/knee_r/knee_flexion_r/speed	/jointset/knee_r/knee_adduction_r/speed	/jointset/knee_r/knee_rotation_r/speed	/jointset/ankle_r/ankle_angle_r/speed	/jointset/subtalar_r/subtalar_angle_r/speed	/forceset/tau_hip_flexion_r	/forceset/tau_hip_adduction_r	/forceset/tau_hip_rotation_r	/forceset/tau_knee_flexion_r	/forceset/tau_ankle_angle_r	/forceset/tau_subtalar_angle_r	/forceset/tau_lumbar_extension	lambda_cid13_p0	lambda_cid14_p0	lambda_cid14_p1	lambda_cid14_p2	lambda_cid14_p3	lambda_cid14_p4	lambda_cid14_p5	/jointset/ground_pelvis/pelvis_tilt/accel	/jointset/ground_pelvis/pelvis_tx/accel	/jointset/ground_pelvis/pelvis_ty/accel	/jointset/hip_r/hip_flexion_r/accel	/jointset/hip_r/hip_adduction_r/accel	/jointset/hip_r/hip_rotation_r/accel	/jointset/back/lumbar_extension/accel	/jointset/patellofemoral_r/patellar_flexion_r/accel	/jointset/knee_r/knee_flexion_r/accel	/jointset/knee_r/knee_adduction_r/accel	/jointset/knee_r/knee_rotation_r/accel	/jointset/ankle_r/ankle_angle_r/accel	/jointset/subtalar_r/subtalar_angle_r/accel	gamma_cid13_p0	gamma_cid14_p0	gamma_cid14_p1	gamma_cid14_p2	gamma_cid14_p3	gamma_cid14_p4	gamma_cid14_p5
0	-0.00651537596818158	0.09626029089833747	0.9427240777751735	0.1762555222360518	-0.232152655410604	-0.2616406900647738	-0.038598046466844	0.07317863873451144	0.07317863873451017	0.1745326795924168	0.1745329251994329	0.03247278518263602	-0.003451938808553168	0	0	0	0	0	0	0	0	0	0	0	0	0	0.2227591145649135	-0.1368762716235302	-0.03984234300002169	-0.375551647128552	0.3341659791276856	-0.1487177129229002	-0.1241793107195518	-39.07571877277233	56.6203494876811	-44.68728201960088	-3.823221625299305	-5.130610933922736	-681.7191465367182	45.99412698405758	-2.771920159414893	-1.801660302019467	-0.67198259263461	10.29211948918766	0.3086792847690591	2.221052160407406	-5.513467223526197	8.634643725107898	8.634643725109335	-2.96291067614295	0.159491615575139	1.901381174262524	0.7459560285960107	9.266971610494434e-08	7.403890538993195e-08	-5.725675459258983e-07	1.902716759207433e-07	1.012753533834445e-08	1.311650839609253e-07	-2.671444443806383e-07
0.01	-0.00664794857796582	0.09617419368617006	0.9426917017278265	0.1767527244085682	-0.2321364852630377	-0.2615214639782987	-0.03887460390316128	0.07359795656250112	0.07359795656249947	0.1743855215206034	0.1745294738873926	0.03256826462213971	-0.003413865037277007	-0.0265220810941942	-0.01685424232885581	-0.00645863721853946	0.09877836863837655	0.003139035963890432	0.02372055636322878	-0.05479077274782381	0.08351702774443331	0.08351702774443726	-0.02912606268888165	-0.0006446719461388253	0.01935115767342284	0.007574808138026651	0.2277523841188276	-0.1555883887031345	-0.04211473444946354	-0.3925560709334392	0.3618994672401153	-0.1404165241396058	-0.1263383516842849	-39.08967727607426	65.95437726531644	-39.54967160330722	-4.52588574195331	-14.85030994974411	-682.4969091135313	57.27573799129922	-2.59348179753762	-1.57252415715457	-0.6302922158161945	9.571391859653554	0.3022030353008928	2.428904504697263	-5.383775123045066	8.158233087008515	8.158233087008375	-2.841693575003228	-0.1693466716304479	1.990291802697309	0.7571823683228674	1.229549188737592e-07	7.155852620907019e-08	-7.72077339817055e-07	1.700763522833125e-07	4.398398695143333e-08	-7.453729436554531e-08	-3.08985960466408e-07
0.02	-0.007045967941316958	0.09593051045894685	0.9425952417224236	0.178217849529174	-0.2320917872992123	-0.2611687629021117	-0.03968344763148203	0.0748420448255248	0.07484204482552455	0.1739562549199465	0.1745209889718665	0.03286491738614099	-0.003301255352237197	-0.05308935071302526	-0.03151720301116125	-0.01281679161117751	0.1935845896163861	0.005705563251856951	0.04669499794312318	-0.1064572584010283	0.164954087004766	0.164954087004774	-0.0564217057674602	-0.001005346769157969	0.04023466489945139	0.01490718275272771	0.2327456536728253	-0.1743005057827461	-0.04438712589893642	-0.4095604947382772	0.3896329553525578	-0.1321153353563156	-0.1284973926489582	-39.13085208807725	75.36461857254477	-34.41935956543395	-5.2038039392369	-24.67565245592378	-682.0594285537802	68.32713971772451	-2.780957864342245	-1.363403972709404	-0.6518860274543271	9.497689957114259	0.1941775495842682	2.071829203740504	-4.888609804602308	8.218650028287767	8.218650028289238	-2.59682675408231	0.2162910401991036	2.207851084783648	0.6974693239308788	1.53240121642574e-07	6.907814702820844e-08	-9.715871337082118e-07	1.498810286458817e-07	7.78404385645222e-08	-2.802396726920159e-07	-3.508274765521776e-07
0.03	-0.007708922928776246	0.09554835057170478	0.9424354543342276	0.1806136450170673	-0.2320240685940689	-0.2605917101305205	-0.04099455082179997	0.07689046773391546	0.07689046773391307	0.1732629274203959	0.174511586576549	0.03337467774683468	-0.003117056013596957	-0.07935693666127185	-0.04482722274194961	-0.01913861435974993	0.2850782155512708	0.007787271580812848	0.06863475219669536	-0.1554207573890507	0.2443465673199173	0.2443465673199134	-0.08200926012504985	-0.0009266003903640776	0.06162884395986989	0.02186028724584433	0.2266301398433862	-0.188076042147286	-0.04277055172203341	-0.4035592201583189	0.3787326577585726	-0.1151166703681558	-0.1235001251968969	-39.19825408780951	72.59717848723211	-27.64155876628056	-6.14711917254681	-23.93659328591151	-681.2116651124136	80.95934020934585	-2.527935459901472	-1.301652514118053	-0.6220765273761474	8.900766194759985	0.2074092872944182	2.242976122025526	-4.848826604851243	7.741927159807906	7.741927159805284	-2.504680242890939	-0.1039897040772325	2.091949216494575	0.6832341641255544	1.696264257728498e-07	7.064382111585003e-08	-1.06673895512531e-06	1.694320400894574e-07	9.267543046175544e-08	-3.901361500910945e-07	-3.966735903255618e-07
